<?xml version="1.0" encoding="utf-8"?>
<!-- Generator: Adobe Illustrator 26.2.0, SVG Export Plug-In . SVG Version: 6.00 Build 0)  -->
<svg version="1.1" xmlns="http://www.w3.org/2000/svg" xmlns:xlink="http://www.w3.org/1999/xlink" x="0px" y="0px"
	 viewBox="0 0 512 512" style="enable-background:new 0 0 512 512;" xml:space="preserve">
<style type="text/css">
	.st0{fill:#FFFFFF;}
	.st1{fill:#2B599E;}
	.st2{fill:#ED2939;}
</style>
<g id="Calque_3">
</g>
<g id="Calque_6">
	<g id="Calque_4">
		<path class="st0" d="M460.3,512H51.7C23.2,512,0,488.8,0,460.3V51.7C0,23.2,23.2,0,51.7,0h408.5C488.8,0,512,23.2,512,51.7v408.5
			C512,488.8,488.8,512,460.3,512z"/>
	</g>
	<g id="Calque_5">
		<g id="Calque_1">
			<path class="st1" d="M186.7,162.2l41.4-19.4c11.4-5.4,16.4-19,11-30.4l-19.4-41.4c-5.4-11.4-19-16.4-30.4-11l-41.4,19.4
				c-11.5,5.4-16.4,19-11,30.4l19.4,41.4C161.7,162.6,175.3,167.5,186.7,162.2z M333,43.1l-72.5,34c-5.7,2.7-8.2,9.5-5.8,14.6
				c2.4,5.1,9.8,8.8,14.9,6.4l73.1-34.3c11.4-5.4,25.1-0.4,30.4,11l97.1,207.1c5.4,11.4,0.4,25.1-11,30.4L169.3,448.2
				c-11.4,5.4-25.1,0.4-30.4-11L41.8,230.1c-5.4-11.4-0.4-25.1,11-30.4l72.5-34c5.7-2.7,8.2-9.5,5.5-15.2s-9.5-8.2-15.2-5.5
				l-72.5,34c-22.9,10.7-32.7,38-22,60.8l97.1,207.1c10.7,22.9,38,32.7,60.8,22L468.9,333c22.9-10.7,32.7-38,22-60.8L393.8,65.1
				C383.1,42.2,355.8,32.4,333,43.1z"/>
		</g>
		<g id="Calque_2">
			<path class="st2" d="M333.4,125.7l-6.8,3.2l-1.6-3.4c-2.6-5.6-9.3-8-14.9-5.4c-5.6,2.6-8,9.3-5.4,14.9l1.6,3.4l-184.6,86.5
				c-10.1,4.7-14.4,16.7-9.7,26.8l17.8,37.9c4.7,10.1,16.7,14.4,26.8,9.7c9-4.2,19.5,1.3,21.1,11.1l14.2,75
				c1.6,9.8,12.1,15.4,21.1,11.1l43.9-20.6c6-2.8,9.5-9.3,8.4-15.9l-9-49.8l40-18.7c10.2-4.8,16.2-15.5,14.9-26.7l-4.3-36l15.3-7.2
				c3.6-1.7,6.4-4.7,7.7-8.4l5.1-14.1l27-12.7c7.5-3.5,10.7-12.4,7.2-19.9l-15.8-33.8C349.8,125.4,340.9,122.2,333.4,125.7z
				 M288.8,267.5c0.2,1.6-0.7,3.1-2.1,3.8l-34.6,16.2l-5.5-30.4l38.9-18.2L288.8,267.5z"/>
		</g>
	</g>
</g>
</svg>
